<svg width="400" height="220" viewBox="0 0 400 220" fill="none" xmlns="http://www.w3.org/2000/svg">
<path d="M72.1295 99.8561L51.0216 66.1367L72.8417 53.9281L100.647 71.3381C109.137 76.8417 117.367 82.4389 125.82 88.6043C121.856 91.2014 118.029 94.0072 114.374 97L99.5468 87.2446C90.6403 81.3453 78.9353 73.6403 69.6331 66.7338L67.5324 68.8345C74.4389 78.1367 82.1367 89.8417 88.0432 98.7482L97.6475 113.345C94.5827 116.914 91.7122 120.64 89.036 124.525C83.0072 116.245 77.5252 108.173 72.1295 99.8561ZM86.5755 128.194C78.223 122.331 69.8417 116.763 60.9281 110.856L32.259 92.0935L15.9281 101.223L79.9928 139.662C82 135.727 84.2014 131.899 86.5755 128.194ZM85.9928 270.871C80.3166 261.871 75.6978 252.144 72.2878 241.863L46.2662 236.432C35.0863 234.165 24.6187 232.043 13.8633 230.209V226.669C25.0432 224.971 35.5108 222.993 46.1223 220.727L66.5252 216.036C66.0072 211.734 65.6978 207.374 65.5971 202.957C55.4964 204.647 44.4317 206.921 35.6475 208.698L0 216.05V240.209L78.6619 259.871L19.0935 295.612L27.1223 309.964L60.1367 288.353C69.1223 282.396 77.5683 276.784 85.9928 270.871ZM273.878 90.1943C277.741 92.8417 281.453 95.6907 285 98.7194L301.245 88.036C310.151 82.1367 321.856 74.4317 331.158 67.5252L333.259 69.6259C326.353 78.9281 318.655 90.6331 312.748 99.5396L301.906 116.022C304.871 119.662 307.647 123.468 310.223 127.417C316.856 118.396 322.806 109.669 328.655 100.64L346.065 72.8345L333.856 51.0144L300.144 72.1223C291.295 77.8705 282.719 83.7122 273.878 90.1943ZM214.604 67.8633L219.604 46.1295C221.871 35.518 223.849 25.0504 225.547 13.8705H229.086C230.928 24.6259 233.05 35.0935 235.309 46.2734L241.058 73.813C251.604 77.3525 261.554 82.1799 270.734 88.1007C277 79.2446 282.871 70.3813 289.144 60.9281L307.906 32.259L298.777 15.9281L259.46 81.4604L239.094 0H214.935L207.576 35.6547C205.719 44.8273 203.317 56.4892 201.604 66.9425C206 67.036 210.331 67.3525 214.604 67.8633ZM129.381 86.3381C138.266 80.9137 147.842 76.5036 157.942 73.259L163.576 46.2662C165.842 35.0863 167.964 24.6187 169.799 13.8633H173.338C175.036 25.0432 177.014 35.5108 179.281 46.1223L184.237 67.6835C188.525 67.223 192.87 66.964 197.273 66.9209C195.568 56.4748 193.165 44.813 191.309 35.6547L183.95 0H159.791L140.13 78.6619L104.388 19.0935L90.036 27.1223L111.647 60.1367C117.691 69.2446 123.367 77.8058 129.381 86.3381ZM65.5899 198.165C65.6475 193.741 65.9281 189.367 66.4029 185.058L46.1223 180.396C35.5108 178.13 25.0432 176.151 13.8633 174.453V170.914C24.6187 169.072 35.0863 166.95 46.2662 164.691L71.8993 159.338C73.9209 153.036 76.3957 146.942 79.2878 141.086L0 160.914V185.072L35.6547 192.432C44.4317 194.201 55.4892 196.475 65.5899 198.165ZM124.827 310.748C120.892 308.122 117.108 305.288 113.482 302.266L98.7482 311.957C89.8417 317.856 78.1367 325.561 68.8345 332.468L66.7338 330.367C73.6403 321.065 81.3381 309.36 87.2446 300.453L96.8993 285.777C93.8633 282.18 91.0072 278.424 88.3597 274.511C82.2878 282.849 76.7698 290.978 71.3381 299.353L53.9281 327.158L66.1367 348.978L99.8489 327.871C108.273 322.41 116.446 316.856 124.827 310.748ZM309.576 273.568C306.971 277.482 304.173 281.259 301.18 284.863L311.957 301.245C317.856 310.151 325.561 321.856 332.468 331.158L330.367 333.259C321.065 326.353 309.36 318.655 300.453 312.748L284.13 302.007C280.547 305.014 276.806 307.842 272.914 310.46C281.813 316.993 290.446 322.871 299.36 328.655L327.165 346.065L348.986 333.856L327.878 300.144C322.058 291.187 316.151 282.518 309.576 273.568ZM321.338 140.13L380.906 104.388L372.878 90.036L339.863 111.647C330.36 117.95 321.453 123.856 312.554 130.158L310.986 128.59C313.705 132.863 316.187 137.295 318.417 141.885L319.065 141.496L318.755 142.59C321.072 147.417 323.101 152.41 324.827 157.547L353.734 163.583C364.914 165.849 375.381 167.971 386.137 169.806V173.345C374.957 175.043 364.489 177.022 353.878 179.288L330.856 184.583C331.345 188.827 331.64 193.137 331.719 197.496C342.511 195.777 354.784 193.252 364.345 191.317L400 183.95V159.791L321.338 140.13ZM331.734 201.396C331.691 205.763 331.439 210.079 330.978 214.338L353.871 219.604C364.482 221.871 374.95 223.849 386.129 225.547V229.086C375.374 230.928 364.906 233.05 353.727 235.309L325.216 241.259C321.727 251.971 316.921 262.086 310.978 271.41L311.755 270.633C320.662 276.935 329.561 282.835 339.065 289.144L367.734 307.906L384.058 298.777L318.525 259.46L400 239.086V214.928L364.345 207.568C354.784 205.64 342.518 203.115 331.734 201.396ZM128.446 313.079C122.489 321.547 116.856 330.043 110.863 339.079L92.1007 367.748L101.23 384.072L139.978 319.489C136.014 317.532 132.173 315.396 128.446 313.079ZM269.842 312.554L270.065 312.331C266.309 314.719 262.424 316.928 258.432 318.942L258.511 319.072L258.295 319.007C253.137 321.597 247.784 323.863 242.266 325.777L236.432 353.734C234.165 364.914 232.043 375.381 230.209 386.137H226.669C224.971 374.957 222.993 364.489 220.727 353.878L215.698 332.014C211.432 332.561 207.108 332.899 202.727 333.029C204.432 343.489 206.842 355.173 208.698 364.345L216.05 400H240.209L259.871 321.338L295.612 380.906L309.964 372.878L288.353 339.863C282.05 330.36 276.144 321.453 269.842 312.554ZM185.324 332.432L180.396 353.878C178.13 364.489 176.151 374.957 174.453 386.137H170.914C169.072 375.381 166.95 364.914 164.691 353.734L159.137 327.13C152.842 325.173 146.748 322.77 140.892 319.942L160.906 400H185.065L192.424 364.345C194.281 355.187 196.676 343.54 198.389 333.094C193.978 333.079 189.626 332.856 185.324 332.432Z" fill="url(#paint0_linear)"/>
<defs>
<linearGradient id="paint0_linear" x1="84.2857" y1="284.286" x2="321.429" y2="110" gradientUnits="userSpaceOnUse">
<stop stop-color="#B4C2C0"/>
<stop offset="1" stop-color="#FF5F4B"/>
</linearGradient>
</defs>
</svg>
