<svg width="32" height="21" viewBox="0 0 32 21" fill="none" xmlns="http://www.w3.org/2000/svg">
<path fill-rule="evenodd" clip-rule="evenodd" d="M23.7003 9.51742L25.6875 0L29.5859 1.10021L24.6292 20.9174H18.677L16.8649 12.1309C16.8298 11.9577 16.7939 11.7808 16.7574 11.6007C16.3124 9.40649 15.7707 6.73543 15.3802 4.33423L14.516 4.09059C14.1208 6.57558 13.5508 9.38351 13.0878 11.6644C13.0557 11.8225 13.0242 11.9781 12.9932 12.1309L11.1811 20.9174H5.22887L0 0L4.43512 1.25249L6.16158 9.51742L6.18491 9.63263C6.7339 12.3438 7.24908 14.888 7.69579 17.5006H8.56758C8.98445 14.7463 9.47364 12.1671 10.0314 9.55169L12.228 0L18.0089 1.63319L18.0603 1.85209L19.8305 9.55169C20.3882 12.1671 20.8755 14.7463 21.2943 17.5006H22.1661C22.6128 14.888 23.1279 12.3439 23.6769 9.63289L23.7003 9.51742ZM28.5039 20.8895V16.9414L32 17.9289V20.8895H28.5039Z" fill="white"/>
<path fill-rule="evenodd" clip-rule="evenodd" d="M23.7003 9.51742L25.6875 0L29.5859 1.10021L24.6292 20.9174H18.677L16.8649 12.1309C16.8298 11.9577 16.7939 11.7808 16.7574 11.6007C16.3124 9.40649 15.7707 6.73543 15.3802 4.33423L14.516 4.09059C14.1208 6.57558 13.5508 9.38351 13.0878 11.6644C13.0557 11.8225 13.0242 11.9781 12.9932 12.1309L11.1811 20.9174H5.22887L0 0L4.43512 1.25249L6.16158 9.51742L6.18491 9.63263C6.7339 12.3438 7.24908 14.888 7.69579 17.5006H8.56758C8.98445 14.7463 9.47364 12.1671 10.0314 9.55169L12.228 0L18.0089 1.63319L18.0603 1.85209L19.8305 9.55169C20.3882 12.1671 20.8755 14.7463 21.2943 17.5006H22.1661C22.6128 14.888 23.1279 12.3439 23.6769 9.63289L23.7003 9.51742ZM28.5039 20.8895V16.9414L32 17.9289V20.8895H28.5039Z" fill="url(#paint0_linear)"/>
<defs>
<linearGradient id="paint0_linear" x1="7.34426" y1="15.5516" x2="20.2664" y2="1.2383" gradientUnits="userSpaceOnUse">
<stop stop-color="#B4C2C0"/>
<stop offset="1" stop-color="#FF5F4B"/>
</linearGradient>
</defs>
</svg>
