<svg width="48" height="48" viewBox="0 0 48 48" fill="none" xmlns="http://www.w3.org/2000/svg">
<rect width="48" height="48" fill="#A8E3B9"/>
<path d="M26.2934 37.0826C26.2934 36.7793 26.066 36.4761 25.6869 36.2107L7.79472 24.649L4.80005 26.5823L22.389 37.9545C23.2988 38.5231 24.7771 38.5231 25.6869 37.9545C26.066 37.6891 26.2934 37.3859 26.2934 37.0826Z" fill="#00AE79"/>
<path d="M27.0895 37.0448L30.7665 34.6567L37.5898 30.2594C38.31 29.8045 38.6891 29.2359 38.6891 28.6294C38.6891 28.0229 38.31 27.4543 37.5898 26.9994L26.483 19.797V23.7773H21.0622L30.4253 29.8425L29.2123 30.6385L17.7264 23.2087L18.8636 22.4885H25.1941V18.3945L25.9523 17.9017L38.31 25.9001C39.4093 26.6203 40.0158 27.568 40.0158 28.6294C40.0158 28.6673 40.0158 28.6673 40.0158 28.7052L40.8119 28.1745C42.3661 27.1889 43.2 25.8622 43.2 24.4596C43.2 23.095 42.3661 21.7682 40.8119 20.7826L23.5262 9.60001L4.80005 21.7303L26.1418 35.5285C26.7483 35.9076 27.0895 36.4383 27.0895 37.0448Z" fill="#00AE79"/>
</svg>
