<svg width="48" height="48" viewBox="0 0 48 48" fill="none" xmlns="http://www.w3.org/2000/svg">
<rect width="48" height="48" fill="#1C2024"/>
<path d="M29.1443 19.9545L29.1928 20.5004L29.732 20.4021L33.4937 19.7164L33.9275 19.6373L33.9032 19.1969C33.7412 16.2602 32.7778 14.0119 31.0484 12.5047C29.3258 11.0034 26.9148 10.3 23.9803 10.3C21.3663 10.3 19.0287 10.9553 17.3326 12.2766C15.6216 13.6094 14.6052 15.5893 14.6052 18.1273C14.6052 20.6276 15.5345 22.3519 17.1287 23.598C18.6857 24.815 20.8512 25.555 23.2841 26.1927C25.2423 26.7169 26.6339 27.1314 27.5439 27.6905C27.9867 27.9626 28.2898 28.2547 28.4857 28.5882C28.6803 28.9196 28.7897 29.3267 28.7897 29.8628C28.7897 30.9692 28.4161 31.6976 27.7778 32.1693C27.1123 32.6612 26.0862 32.9286 24.6856 32.9286C22.6415 32.9286 21.2188 32.4409 20.3022 31.5759C19.3901 30.7152 18.8958 29.4016 18.877 27.5655L18.8713 27.0032L18.3135 27.0747L14.3364 27.584L13.8958 27.6405L13.8999 28.0846C13.9305 31.3971 15.1204 33.7839 17.0996 35.3288C19.0596 36.8588 21.7305 37.5139 24.6464 37.5139C27.4698 37.5139 29.8324 36.788 31.4988 35.4107C33.1764 34.0242 34.0999 32.0164 34.0999 29.569C34.0999 27.0407 33.1195 25.3506 31.5308 24.1497C29.9818 22.9789 27.872 22.2878 25.644 21.6624C23.5416 21.0702 22.099 20.6025 21.176 20.0129C20.7263 19.7256 20.4244 19.4236 20.2313 19.0855C20.0393 18.7493 19.935 18.3427 19.935 17.8139C19.935 16.9113 20.2647 16.2058 20.8885 15.7132C21.5277 15.2085 22.5303 14.8853 23.9411 14.8853C25.6705 14.8853 26.8739 15.357 27.6853 16.177C28.5046 17.0049 28.9934 18.2571 29.1443 19.9545Z" fill="#1C2024" stroke="url(#paint0_linear)"/>
<path d="M6.0002 18.6157L6.0002 19.2817L7.6832 19.2817L7.6832 20.8747L8.2172 20.8747L8.2172 19.2817L9.3302 19.2817L9.3302 21.0787L9.90021 21.0787L9.90021 18.6157L6.0002 18.6157Z" fill="url(#paint1_linear)"/>
<path d="M6.0002 22.169L6.0002 22.835L7.4672 22.835L7.4672 23.621C7.4672 24.455 7.9202 24.941 8.6942 24.941C9.4982 24.941 9.9002 24.473 9.9002 23.642L9.9002 22.169L6.0002 22.169ZM7.9892 22.835L9.3632 22.835L9.3632 23.585C9.3632 24.038 9.1502 24.263 8.7002 24.263C8.2382 24.263 7.9892 24.038 7.9892 23.576L7.9892 22.835Z" fill="url(#paint2_linear)"/>
<path d="M5.9402 27.7271C5.9402 28.9391 6.7742 29.6501 7.9502 29.6501C9.1262 29.6501 9.9602 28.9391 9.9602 27.7271C9.9602 26.5181 9.1262 25.8041 7.9502 25.8041C6.7742 25.8041 5.9402 26.5181 5.9402 27.7271ZM6.5132 27.7271C6.5132 26.9381 7.0892 26.4911 7.9502 26.4911C8.8112 26.4911 9.3872 26.9381 9.3872 27.7271C9.3872 28.5131 8.8112 28.9631 7.9502 28.9631C7.0892 28.9631 6.5132 28.5131 6.5132 27.7271Z" fill="url(#paint3_linear)"/>
<path d="M41.9998 29.3843L41.9998 28.7183L40.3168 28.7183L40.3168 27.1253L39.7828 27.1253L39.7828 28.7183L38.6698 28.7183L38.6698 26.9213L38.0998 26.9213L38.0998 29.3843L41.9998 29.3843Z" fill="url(#paint4_linear)"/>
<path d="M41.9998 25.831L41.9998 25.165L40.5328 25.165L40.5328 24.379C40.5328 23.545 40.0798 23.059 39.3058 23.059C38.5018 23.059 38.0998 23.527 38.0998 24.358L38.0998 25.831L41.9998 25.831ZM40.0108 25.165L38.6368 25.165L38.6368 24.415C38.6368 23.962 38.8498 23.737 39.2998 23.737C39.7618 23.737 40.0108 23.962 40.0108 24.424L40.0108 25.165Z" fill="url(#paint5_linear)"/>
<path d="M42.0598 20.2729C42.0598 19.0609 41.2258 18.3499 40.0498 18.3499C38.8738 18.3499 38.0398 19.0609 38.0398 20.2729C38.0398 21.4819 38.8738 22.1959 40.0498 22.1959C41.2258 22.1959 42.0598 21.4819 42.0598 20.2729ZM41.4868 20.2729C41.4868 21.0619 40.9108 21.5089 40.0498 21.5089C39.1888 21.5089 38.6128 21.0619 38.6128 20.2729C38.6128 19.4869 39.1888 19.0369 40.0498 19.0369C40.9108 19.0369 41.4868 19.4869 41.4868 20.2729Z" fill="url(#paint6_linear)"/>
<defs>
<linearGradient id="paint0_linear" x1="23.9999" y1="10.8" x2="23.9999" y2="37.0139" gradientUnits="userSpaceOnUse">
<stop stop-color="#F9F9F9"/>
<stop offset="1" stop-color="white"/>
</linearGradient>
<linearGradient id="paint1_linear" x1="7.0457" y1="20.2207" x2="8.74814" y2="27.9461" gradientUnits="userSpaceOnUse">
<stop stop-color="#B4C2C0"/>
<stop offset="1" stop-color="#FF5F4B"/>
</linearGradient>
<linearGradient id="paint2_linear" x1="7.0457" y1="20.2207" x2="8.74814" y2="27.9461" gradientUnits="userSpaceOnUse">
<stop stop-color="#B4C2C0"/>
<stop offset="1" stop-color="#FF5F4B"/>
</linearGradient>
<linearGradient id="paint3_linear" x1="7.0457" y1="20.2207" x2="8.74814" y2="27.9461" gradientUnits="userSpaceOnUse">
<stop stop-color="#B4C2C0"/>
<stop offset="1" stop-color="#FF5F4B"/>
</linearGradient>
<linearGradient id="paint4_linear" x1="40.9543" y1="27.7793" x2="39.2518" y2="20.0539" gradientUnits="userSpaceOnUse">
<stop stop-color="#B4C2C0"/>
<stop offset="1" stop-color="#FF5F4B"/>
</linearGradient>
<linearGradient id="paint5_linear" x1="40.9543" y1="27.7793" x2="39.2518" y2="20.0539" gradientUnits="userSpaceOnUse">
<stop stop-color="#B4C2C0"/>
<stop offset="1" stop-color="#FF5F4B"/>
</linearGradient>
<linearGradient id="paint6_linear" x1="40.9543" y1="27.7793" x2="39.2518" y2="20.0539" gradientUnits="userSpaceOnUse">
<stop stop-color="#B4C2C0"/>
<stop offset="1" stop-color="#FF5F4B"/>
</linearGradient>
</defs>
</svg>
