<svg width="150" height="28" viewBox="0 0 150 28" fill="none" xmlns="http://www.w3.org/2000/svg">
<path d="M48.336 7.2841C42.0855 7.2841 38.2598 11.2173 38.2598 17.8744C38.2598 24.4453 42.2129 27.9607 48.336 27.9607C53.6926 27.9607 56.2023 25.5319 57.1362 21.9748L53.2256 20.8858C52.6737 22.7688 51.5674 24.2757 48.3785 24.2757C44.9773 24.2757 43.1493 22.4763 42.8097 18.9191H57.2236C57.3085 17.9137 57.3085 17.0361 57.3085 16.2814C57.3085 10.883 54.3743 7.2841 48.336 7.2841ZM42.8521 15.9053C43.2767 12.3899 45.1046 10.7576 48.2087 10.7576C51.3976 10.7576 52.9284 12.5153 53.0982 15.9053H42.8521Z" fill="white"/>
<path d="M97.5934 0.44268H93.001V4.1891H97.5934V0.44268Z" fill="white"/>
<path d="M60.4424 27.4567H65.0348V1.71853L60.4424 0.44268V27.4567Z" fill="white"/>
<path d="M110.701 7.2841C104.451 7.2841 100.625 11.2173 100.625 17.8744C100.625 24.4453 104.578 27.9607 110.701 27.9607C116.058 27.9607 118.567 25.5319 119.501 21.9748L115.591 20.8858C115.039 22.7688 113.933 24.2757 110.744 24.2757C107.343 24.2757 105.515 22.4763 105.175 18.9191H119.589C119.674 17.9137 119.674 17.0361 119.674 16.2814C119.671 10.883 116.74 7.2841 110.701 7.2841ZM105.215 15.9053C105.639 12.3899 107.467 10.7576 110.571 10.7576C113.76 10.7576 115.291 12.5153 115.461 15.9053H105.215Z" fill="white"/>
<path d="M122.808 27.4567H127.4V1.71853L122.808 0.44268V27.4567Z" fill="white"/>
<path d="M69.0508 27.4567H73.6432V1.71853L69.0508 0.44268V27.4567Z" fill="white"/>
<path d="M84.4433 7.78537V6.77994C84.4433 4.47899 85.4223 3.34818 87.5049 3.34818C88.3115 3.34818 89.0357 3.43176 89.9297 3.55713L90.0995 0.334326C89.2904 0.167163 88.2691 0 86.6958 0C82.061 0 79.851 2.72132 79.851 6.69635V7.78537H76.5347V11.4261H79.851V27.4565H84.4433V11.4261H93.0013V27.4565H97.5937V9.06122L93.0013 7.78291H84.4433V7.78537Z" fill="white"/>
<path d="M145.103 0.44268V10.8535C143.787 8.62384 141.657 7.25212 138.596 7.28407C133.516 7.24228 130.562 10.9666 130.562 17.7047C130.562 24.3593 133.471 28 138.458 28C141.5 28 143.742 26.5545 145.103 24.2978V27.4543H149.653V1.70624L145.103 0.44268ZM145.103 18.5012C145.103 21.8494 143.063 23.9832 140.001 23.9832C136.6 23.9832 135.069 21.933 135.069 17.7047C135.069 13.3929 136.685 11.3427 140.001 11.3427C143.106 11.3427 145.103 13.6019 145.103 16.9918V18.5012Z" fill="white"/>
<path d="M33.6999 0.44268L31.0928 12.7341C30.3611 16.2912 29.6744 19.6222 29.0801 23.0441H27.9364C27.387 19.487 26.7477 16.156 26.016 12.7783L23.6936 2.83459L23.6262 2.55188L16.0421 0.44268L13.1603 12.7783C12.4286 16.156 11.7869 19.487 11.24 23.0441H10.0962C9.50191 19.6222 8.81517 16.2912 8.08349 12.7341L5.81851 2.06023L0 0.44268L6.85985 27.4567H14.6686L17.046 16.1093C17.6728 13.0659 18.4894 9.15728 19.0438 5.72552L20.1775 6.04018C20.7319 9.39573 21.5185 13.1594 22.1253 16.1093L24.5027 27.4567H32.3115L38.8142 1.86357L33.6999 0.44268Z" fill="white"/>
</svg>
