<svg width="128" height="24" viewBox="0 0 128 24" fill="none" xmlns="http://www.w3.org/2000/svg">
<path d="M41.1525 6.20166C35.8309 6.20166 32.5737 9.55035 32.5737 15.218C32.5737 20.8124 35.9393 23.8053 41.1525 23.8053C45.7129 23.8053 47.8496 21.7375 48.6448 18.709L45.3153 17.7818C44.8455 19.385 43.9036 20.668 41.1886 20.668C38.2929 20.668 36.7366 19.136 36.4474 16.1075H48.7192C48.7915 15.2515 48.7915 14.5043 48.7915 13.8618C48.7915 9.26571 46.2933 6.20166 41.1525 6.20166ZM36.4836 13.5416C36.845 10.5487 38.4013 9.15897 41.044 9.15897C43.759 9.15897 45.0623 10.6554 45.2069 13.5416H36.4836Z" fill="white"/>
<path d="M83.0891 0.376953H79.1792V3.56658H83.0891V0.376953Z" fill="white"/>
<path d="M51.4595 23.3762H55.3693V1.46318L51.4595 0.376953V23.3762Z" fill="white"/>
<path d="M94.2491 6.20166C88.9276 6.20166 85.6704 9.55035 85.6704 15.218C85.6704 20.8124 89.036 23.8053 94.2491 23.8053C98.8096 23.8053 100.946 21.7375 101.741 18.709L98.412 17.7818C97.9421 19.385 97.0003 20.668 94.2853 20.668C91.3896 20.668 89.8333 19.136 89.5441 16.1075H101.816C101.888 15.2515 101.888 14.5043 101.888 13.8618C101.886 9.26571 99.39 6.20166 94.2491 6.20166ZM89.5781 13.5416C89.9396 10.5487 91.4959 9.15897 94.1386 9.15897C96.8536 9.15897 98.1569 10.6554 98.3014 13.5416H89.5781Z" fill="white"/>
<path d="M104.556 23.3762H108.466V1.46318L104.556 0.376953V23.3762Z" fill="white"/>
<path d="M58.7881 23.3762H62.6979V1.46318L58.7881 0.376953V23.3762Z" fill="white"/>
<path d="M71.893 6.62831V5.7723C71.893 3.81332 72.7264 2.85057 74.4995 2.85057C75.1863 2.85057 75.8028 2.92173 76.564 3.02847L76.7085 0.284639C76.0197 0.142319 75.1501 0 73.8107 0C69.8647 0 67.9831 2.31687 67.9831 5.70114V6.62831H65.1597V9.72794H67.9831V23.3759H71.893V9.72794H79.179V23.3759H83.0889V7.71454L79.179 6.62622H71.893V6.62831Z" fill="white"/>
<path d="M123.538 0.376953V9.24051C122.418 7.34223 120.604 6.17437 117.998 6.20158C113.673 6.166 111.158 9.33679 111.158 15.0735C111.158 20.7391 113.635 23.8387 117.881 23.8387C120.47 23.8387 122.38 22.6081 123.538 20.6868V23.3741H127.412V1.45272L123.538 0.376953ZM123.538 15.7516C123.538 18.6022 121.801 20.4189 119.195 20.4189C116.299 20.4189 114.996 18.6734 114.996 15.0735C114.996 11.4025 116.371 9.65701 119.195 9.65701C121.837 9.65701 123.538 11.5804 123.538 14.4666V15.7516Z" fill="white"/>
<path d="M28.6914 0.376953L26.4718 10.8416C25.8489 13.8701 25.2642 16.706 24.7582 19.6194H23.7845C23.3167 16.5909 22.7724 13.755 22.1495 10.8793L20.1722 2.41337L20.1148 2.17269L13.6579 0.376953L11.2044 10.8793C10.5815 13.755 10.0351 16.5909 9.56949 19.6194H8.59574C8.08973 16.706 7.50506 13.8701 6.88212 10.8416L4.95377 1.7541L0 0.376953L5.84034 23.3762H12.4886L14.5126 13.7152C15.0463 11.1242 15.7415 7.79639 16.2135 4.87466L17.1787 5.14256C17.6507 7.99941 18.3204 11.2037 18.8371 13.7152L20.8611 23.3762H27.5093L33.0457 1.58667L28.6914 0.376953Z" fill="white"/>
</svg>
