<svg width="148" height="28" viewBox="0 0 148 28" fill="none" xmlns="http://www.w3.org/2000/svg">
<path d="M47.5832 7.28412C41.4301 7.28412 37.6641 11.2174 37.6641 17.8744C37.6641 24.4454 41.5555 27.9607 47.5832 27.9607C52.8562 27.9607 55.3268 25.5319 56.2462 21.9748L52.3965 20.8858C51.8533 22.7688 50.7642 24.2757 47.625 24.2757C44.2768 24.2757 42.4774 22.4763 42.143 18.9192H56.3322C56.4158 17.9137 56.4158 17.0361 56.4158 16.2814C56.4158 10.883 53.5273 7.28412 47.5832 7.28412ZM42.1848 15.9053C42.6027 12.39 44.4022 10.7577 47.4578 10.7577C50.5971 10.7577 52.104 12.5153 52.2712 15.9053H42.1848Z" fill="#1C2024"/>
<path d="M96.0716 0.442688H91.5508V4.18911H96.0716V0.442688Z" fill="#1C2024"/>
<path d="M59.5 27.4567H64.0208V1.71854L59.5 0.442688V27.4567Z" fill="#1C2024"/>
<path d="M108.976 7.28412C102.823 7.28412 99.0566 11.2174 99.0566 17.8744C99.0566 24.4454 102.948 27.9607 108.976 27.9607C114.249 27.9607 116.719 25.5319 117.639 21.9748L113.789 20.8858C113.246 22.7688 112.157 24.2757 109.018 24.2757C105.669 24.2757 103.87 22.4763 103.536 18.9192H117.725C117.808 17.9137 117.808 17.0361 117.808 16.2814C117.806 10.883 114.92 7.28412 108.976 7.28412ZM103.575 15.9053C103.993 12.39 105.792 10.7577 108.848 10.7577C111.987 10.7577 113.494 12.5153 113.661 15.9053H103.575Z" fill="#1C2024"/>
<path d="M120.893 27.4567H125.413V1.71854L120.893 0.442688V27.4567Z" fill="#1C2024"/>
<path d="M67.9746 27.4567H72.4954V1.71854L67.9746 0.442688V27.4567Z" fill="#1C2024"/>
<path d="M83.1272 7.78537V6.77994C83.1272 4.47899 84.0908 3.34818 86.141 3.34818C86.935 3.34818 87.6479 3.43176 88.528 3.55713L88.6952 0.334326C87.8987 0.167163 86.8933 0 85.3445 0C80.782 0 78.6064 2.72132 78.6064 6.69635V7.78537H75.3418V11.4261H78.6064V27.4565H83.1272V11.4261H91.5517V27.4565H96.0725V9.06122L91.5517 7.78291H83.1272V7.78537Z" fill="#1C2024"/>
<path d="M142.84 0.442688V10.8535C141.544 8.62384 139.448 7.25212 136.434 7.28408C131.434 7.24229 128.525 10.9666 128.525 17.7047C128.525 24.3593 131.389 28 136.298 28C139.293 28 141.5 26.5545 142.84 24.2978V27.4543H147.319V1.70624L142.84 0.442688ZM142.84 18.5012C142.84 21.8494 140.832 23.9832 137.818 23.9832C134.47 23.9832 132.963 21.933 132.963 17.7047C132.963 13.3929 134.553 11.3427 137.818 11.3427C140.873 11.3427 142.84 13.6019 142.84 16.9918V18.5012Z" fill="#1C2024"/>
<path d="M33.1745 0.442688L30.608 12.7341C29.8878 16.2912 29.2117 19.6222 28.6267 23.0441H27.5008C26.96 19.487 26.3306 16.156 25.6104 12.7783L23.3242 2.83459L23.2578 2.55189L15.792 0.442688L12.9551 12.7783C12.2349 16.156 11.6031 19.487 11.0647 23.0441H9.93883C9.35375 19.6222 8.67773 16.2912 7.95745 12.7341L5.72779 2.06024L0 0.442688L6.75289 27.4567H14.4399L16.7802 16.1093C17.3972 13.066 18.2011 9.15729 18.7468 5.72553L19.8629 6.04019C20.4086 9.39574 21.183 13.1594 21.7804 16.1093L24.1206 27.4567H31.8077L38.209 1.86357L33.1745 0.442688Z" fill="#1C2024"/>
</svg>
