<svg width="132" height="48" viewBox="0 0 132 48" fill="none" xmlns="http://www.w3.org/2000/svg">
<path d="M131.999 48H0V0H132L131.999 48Z" fill="url(#paint0_linear)"/>
<path d="M89.4906 12H99.0731C107.203 12 110.934 16.1236 110.934 23.5855C110.934 31.0473 106.456 35.5636 99.0731 35.5636H89.4906V12ZM93.9677 15.7309V31.872H98.7197C104.257 31.872 106.456 28.8873 106.456 23.5855C106.456 18.048 104.139 15.7309 98.4841 15.7309H93.9677Z" fill="#1C2024"/>
<path d="M111.69 31.0273V35.5633H115.705V32.1619L111.69 31.0273Z" fill="#1C2024"/>
<path d="M75.9677 31.5578V13.2655L71.4906 12V35.5636H85.4782L86.6106 31.5578H75.9677Z" fill="#1C2024"/>
<path d="M53.2802 12V35.5636H57.7572V27.0415H67.0714L68.1689 23.1535H57.7572V16.1236H67.5012L68.6663 12H53.2802Z" fill="#1C2024"/>
<path d="M46.0124 11.4004L43.7324 22.3204C43.0931 25.4797 42.4931 28.4404 41.9717 31.4797H40.9724C40.4924 28.3204 39.9317 25.3597 39.2924 22.3597L37.2153 13.3226L30.4124 11.4004L27.8924 22.3597C27.2531 25.3597 26.6924 28.3204 26.2124 31.4797H25.2131C24.6938 28.4404 24.0938 25.4797 23.4524 22.3204L21.4735 12.8382L16.3833 11.4004L22.3833 35.4004H29.2124L31.2917 25.3204C31.8917 22.3597 32.6924 18.4804 33.1724 15.2404L34.0495 15.4891C34.5317 18.6789 35.3062 22.436 35.8909 25.3204L37.9702 35.4004H44.7993L50.4851 12.6637L46.0124 11.4004Z" fill="#1C2024"/>
<defs>
<linearGradient id="paint0_linear" x1="19.2" y1="34.8" x2="111.6" y2="14.4" gradientUnits="userSpaceOnUse">
<stop stop-color="#B4C2C0"/>
<stop offset="1" stop-color="#FF5F4B"/>
</linearGradient>
</defs>
</svg>
