<svg width="90" height="90" viewBox="0 0 90 90" fill="none" xmlns="http://www.w3.org/2000/svg">
<path d="M0 38.4C0 24.9587 0 18.2381 2.61584 13.1042C4.9168 8.58834 8.58834 4.9168 13.1042 2.61584C18.2381 0 24.9587 0 38.4 0H51.6C65.0413 0 71.7619 0 76.8958 2.61584C81.4117 4.9168 85.0832 8.58834 87.3842 13.1042C90 18.2381 90 24.9587 90 38.4V51.6C90 65.0413 90 71.7619 87.3842 76.8958C85.0832 81.4117 81.4117 85.0832 76.8958 87.3842C71.7619 90 65.0413 90 51.6 90H38.4C24.9587 90 18.2381 90 13.1042 87.3842C8.58834 85.0832 4.9168 81.4117 2.61584 76.8958C0 71.7619 0 65.0413 0 51.6V38.4Z" fill="#A8E3B9"/>
<path d="M49.1826 69.2657C49.1826 68.7129 48.768 68.1601 48.077 67.6764L15.461 46.6004L10.002 50.1246L42.0651 70.8551C43.7236 71.8916 46.4185 71.8916 48.077 70.8551C48.768 70.3714 49.1826 69.8186 49.1826 69.2657Z" fill="#00AE79"/>
<path d="M50.6357 69.1962L57.3386 64.8428L69.7769 56.827C71.0898 55.9978 71.7808 54.9612 71.7808 53.8556C71.7808 52.75 71.0898 51.7135 69.7769 50.8842L49.5301 37.7549V45.0106H39.6485L56.7166 56.0669L54.5054 57.518L33.5676 43.9741L35.6406 42.6611H47.1806V35.1982L48.5626 34.2998L71.0898 48.8803C73.0937 50.1932 74.1994 51.9208 74.1994 53.8556C74.1994 53.9247 74.1994 53.9247 74.1994 53.9938L75.6505 53.0264C78.4837 51.2298 80.0039 48.8112 80.0039 46.2544C80.0039 43.7668 78.4837 41.3482 75.6505 39.5516L44.1401 19.1666L10.0039 41.2791L48.9082 66.4321C50.0138 67.1231 50.6357 68.0906 50.6357 69.1962Z" fill="#00AE79"/>
</svg>
