<svg width="80" height="80" viewBox="0 0 80 80" fill="none" xmlns="http://www.w3.org/2000/svg">
<path d="M40 78V2" stroke="#1C2024"/>
<path d="M2 40L78 40" stroke="#1C2024"/>
<path d="M2 40L78 40" stroke="#1C2024"/>
<path fill-rule="evenodd" clip-rule="evenodd" d="M48 19C48 23.4183 44.4183 27 40 27C35.5817 27 32 23.4183 32 19C32 14.5817 35.5817 11 40 11C44.4183 11 48 14.5817 48 19ZM69 19C69 23.4183 65.4183 27 61 27C56.5817 27 53 23.4183 53 19C53 14.5817 56.5817 11 61 11C65.4183 11 69 14.5817 69 19ZM19 48C23.4183 48 27 44.4183 27 40C27 35.5817 23.4183 32 19 32C14.5817 32 11 35.5817 11 40C11 44.4183 14.5817 48 19 48ZM48 40C48 44.4183 44.4183 48 40 48C35.5817 48 32 44.4183 32 40C32 35.5817 35.5817 32 40 32C44.4183 32 48 35.5817 48 40ZM61 48C65.4183 48 69 44.4183 69 40C69 35.5817 65.4183 32 61 32C56.5817 32 53 35.5817 53 40C53 44.4183 56.5817 48 61 48ZM27 61C27 65.4183 23.4183 69 19 69C14.5817 69 11 65.4183 11 61C11 56.5817 14.5817 53 19 53C23.4183 53 27 56.5817 27 61ZM40 69C44.4183 69 48 65.4183 48 61C48 56.5817 44.4183 53 40 53C35.5817 53 32 56.5817 32 61C32 65.4183 35.5817 69 40 69Z" fill="url(#paint0_linear)"/>
<defs>
<linearGradient id="paint0_linear" x1="19.4364" y1="53.05" x2="61.7427" y2="49.6535" gradientUnits="userSpaceOnUse">
<stop stop-color="#B4C2C0"/>
<stop offset="1" stop-color="#FF5F4B"/>
</linearGradient>
</defs>
</svg>
