<svg width="48" height="48" viewBox="0 0 48 48" fill="none" xmlns="http://www.w3.org/2000/svg">
<circle cx="24" cy="24" r="23.5" stroke="#9EA7A6"/>
<path d="M10.8457 28.9999H12.5977V21.1999H10.8457V28.9999Z" fill="#9EA7A6"/>
<path d="M17.879 29.1139C19.925 29.1139 21.203 28.0579 21.377 26.1019L19.685 25.8739C19.487 27.2599 18.785 27.6499 17.843 27.6499C16.493 27.6499 15.851 26.6479 15.851 25.0999C15.851 23.5519 16.493 22.5499 17.843 22.5499C18.785 22.5499 19.493 22.9819 19.685 24.3259L21.377 24.0979C21.227 22.1419 19.925 21.0859 17.879 21.0859C15.437 21.0859 14.045 22.7179 14.045 25.0999C14.045 27.4819 15.437 29.1139 17.879 29.1139Z" fill="#9EA7A6"/>
<path d="M26.2475 29.1139C28.7615 29.1139 30.1415 27.4579 30.1415 25.0999C30.1415 22.7419 28.7615 21.0859 26.2475 21.0859C23.7335 21.0859 22.3475 22.7419 22.3475 25.0999C22.3475 27.4579 23.7335 29.1139 26.2475 29.1139ZM26.2475 27.6379C24.8735 27.6379 24.1535 26.6359 24.1535 25.0999C24.1535 23.5639 24.8735 22.5619 26.2475 22.5619C27.6155 22.5619 28.3355 23.5639 28.3355 25.0999C28.3355 26.6359 27.6155 27.6379 26.2475 27.6379Z" fill="#9EA7A6"/>
<path d="M36.291 21.1999V24.9319C36.291 25.3879 36.309 25.8499 36.333 26.3179C36.099 25.8139 35.877 25.3999 35.655 25.0039L33.495 21.1999H31.593V28.9999H33.297V25.2679C33.297 24.8119 33.285 24.3499 33.255 23.8819C33.495 24.3799 33.717 24.7999 33.939 25.1959L36.093 28.9999H37.995V21.1999H36.291Z" fill="#9EA7A6"/>
</svg>
