<svg width="80" height="80" viewBox="0 0 80 80" fill="none" xmlns="http://www.w3.org/2000/svg">
<path d="M18.5 22C18.5 10.1259 28.1259 0.5 40 0.5C51.8741 0.5 61.5 10.1259 61.5 22V47.5H18.5V22Z" stroke="black"/>
<path d="M26.5 14C26.5 6.54416 32.5442 0.5 40 0.5C47.4558 0.5 53.5 6.54416 53.5 14V47.5H26.5V14Z" stroke="black"/>
<rect x="8" y="36" width="64" height="44" fill="url(#paint0_linear)"/>
<path d="M40 46V52" stroke="url(#paint1_linear)"/>
<path d="M40 64V70" stroke="url(#paint2_linear)"/>
<path d="M48.4854 49.5146L44.2427 53.7573" stroke="url(#paint3_linear)"/>
<path d="M35.7573 62.2427L31.5147 66.4853" stroke="url(#paint4_linear)"/>
<path d="M28 58H34" stroke="url(#paint5_linear)"/>
<path d="M46 58H52" stroke="url(#paint6_linear)"/>
<path d="M31.5146 49.5146L35.7573 53.7573" stroke="url(#paint7_linear)"/>
<path d="M44.2427 62.2427L48.4853 66.4853" stroke="url(#paint8_linear)"/>
<defs>
<linearGradient id="paint0_linear" x1="17.3091" y1="67.9" x2="63.6607" y2="62.4873" gradientUnits="userSpaceOnUse">
<stop stop-color="#B4C2C0"/>
<stop offset="1" stop-color="#FF5F4B"/>
</linearGradient>
<linearGradient id="paint1_linear" x1="40.5" y1="46" x2="40.5" y2="52" gradientUnits="userSpaceOnUse">
<stop stop-color="#F9F9F9"/>
<stop offset="1" stop-color="white"/>
</linearGradient>
<linearGradient id="paint2_linear" x1="40.5" y1="64" x2="40.5" y2="70" gradientUnits="userSpaceOnUse">
<stop stop-color="#F9F9F9"/>
<stop offset="1" stop-color="white"/>
</linearGradient>
<linearGradient id="paint3_linear" x1="48.8389" y1="49.8682" x2="44.5963" y2="54.1108" gradientUnits="userSpaceOnUse">
<stop stop-color="#F9F9F9"/>
<stop offset="1" stop-color="white"/>
</linearGradient>
<linearGradient id="paint4_linear" x1="36.1109" y1="62.5962" x2="31.8682" y2="66.8389" gradientUnits="userSpaceOnUse">
<stop stop-color="#F9F9F9"/>
<stop offset="1" stop-color="white"/>
</linearGradient>
<linearGradient id="paint5_linear" x1="28" y1="57.5" x2="34" y2="57.5" gradientUnits="userSpaceOnUse">
<stop stop-color="#F9F9F9"/>
<stop offset="1" stop-color="white"/>
</linearGradient>
<linearGradient id="paint6_linear" x1="46" y1="57.5" x2="52" y2="57.5" gradientUnits="userSpaceOnUse">
<stop stop-color="#F9F9F9"/>
<stop offset="1" stop-color="white"/>
</linearGradient>
<linearGradient id="paint7_linear" x1="31.8682" y1="49.1611" x2="36.1108" y2="53.4037" gradientUnits="userSpaceOnUse">
<stop stop-color="#F9F9F9"/>
<stop offset="1" stop-color="white"/>
</linearGradient>
<linearGradient id="paint8_linear" x1="44.5962" y1="61.8891" x2="48.8389" y2="66.1318" gradientUnits="userSpaceOnUse">
<stop stop-color="#F9F9F9"/>
<stop offset="1" stop-color="white"/>
</linearGradient>
</defs>
</svg>
